<svg width="25" height="24" viewBox="0 0 25 24" fill="none" xmlns="http://www.w3.org/2000/svg">
<path d="M20.204 16.857C22.7555 14.58 24.1655 12 24.1655 12C24.1655 12 19.6655 3.75 12.1655 3.75C10.7249 3.75496 9.30055 4.05514 7.98047 4.632L9.13547 5.7885C10.1066 5.43473 11.1319 5.25252 12.1655 5.25C15.3455 5.25 17.984 7.002 19.9175 8.9355C20.848 9.87104 21.6822 10.8977 22.4075 12C22.3205 12.1305 22.2245 12.2745 22.115 12.432C21.6125 13.152 20.87 14.112 19.9175 15.0645C19.67 15.312 19.412 15.5565 19.142 15.7935L20.204 16.857Z" fill="#746D6E"/>
<path d="M17.1111 13.764C17.4458 12.8278 17.5078 11.8158 17.2898 10.8457C17.0719 9.87558 16.5829 8.98733 15.8798 8.28427C15.1768 7.58121 14.2885 7.09225 13.3184 6.87429C12.3483 6.65632 11.3363 6.71831 10.4001 7.05304L11.6346 8.28754C12.211 8.20503 12.7988 8.25791 13.3513 8.44199C13.9038 8.62607 14.4058 8.93628 14.8176 9.34806C15.2293 9.75984 15.5395 10.2619 15.7236 10.8143C15.9077 11.3668 15.9606 11.9546 15.8781 12.531L17.1111 13.764ZM12.6966 15.7125L13.9296 16.9455C12.9933 17.2803 11.9813 17.3423 11.0112 17.1243C10.0411 16.9063 9.15286 16.4174 8.4498 15.7143C7.74674 15.0113 7.25778 14.123 7.03981 13.1529C6.82185 12.1828 6.88384 11.1708 7.21857 10.2345L8.45307 11.469C8.37056 12.0455 8.42344 12.6333 8.60752 13.1858C8.79159 13.7382 9.10181 14.2403 9.51359 14.652C9.92536 15.0638 10.4274 15.374 10.9799 15.5581C11.5323 15.7422 12.1201 15.7951 12.6966 15.7125Z" fill="#746D6E"/>
<path d="M5.19053 8.20499C4.92053 8.44499 4.66103 8.68799 4.41353 8.93549C3.483 9.87103 2.64881 10.8977 1.92353 12L2.21603 12.432C2.71853 13.152 3.46103 14.112 4.41353 15.0645C6.34703 16.998 8.98703 18.75 12.1655 18.75C13.2395 18.75 14.2505 18.5505 15.1955 18.21L16.3505 19.368C15.0304 19.9448 13.6061 20.245 12.1655 20.25C4.66553 20.25 0.165527 12 0.165527 12C0.165527 12 1.57403 9.41849 4.12703 7.14299L5.18903 8.20649L5.19053 8.20499ZM20.6345 21.531L2.63453 3.53099L3.69653 2.46899L21.6965 20.469L20.6345 21.531Z" fill="#746D6E"/>
</svg>
