<svg width="24" height="24" viewBox="0 0 24 24" fill="none" xmlns="http://www.w3.org/2000/svg">
<path d="M13.1484 13.1485L10.8515 10.8516C10.8093 10.8094 10.7343 10.8188 10.7015 10.8703L8.38122 15.4875C8.32965 15.5719 8.42809 15.6703 8.51247 15.6188L13.1297 13.2985C13.1812 13.2656 13.1906 13.1906 13.1484 13.1485Z" fill="white"/>
<path d="M12 2.25C6.61406 2.25 2.25 6.61406 2.25 12C2.25 17.3859 6.61406 21.75 12 21.75C17.3859 21.75 21.75 17.3859 21.75 12C21.75 6.61406 17.3859 2.25 12 2.25ZM13.9031 13.9359L6.42188 17.7094C6.3375 17.7609 6.23906 17.6625 6.29062 17.5781L10.0688 10.0969C10.0781 10.0828 10.0875 10.0734 10.1016 10.0641L17.5781 6.29062C17.6625 6.23906 17.7609 6.3375 17.7094 6.42188L13.9313 13.9031C13.9266 13.9172 13.9172 13.9266 13.9031 13.9359Z" fill="white"/>
</svg>
