<svg width="25" height="18" viewBox="0 0 25 18" fill="none" xmlns="http://www.w3.org/2000/svg">
<path d="M0.833984 3C0.833984 2.20435 1.15005 1.44129 1.71266 0.87868C2.27527 0.31607 3.03833 0 3.83398 0H21.834C22.6296 0 23.3927 0.31607 23.9553 0.87868C24.5179 1.44129 24.834 2.20435 24.834 3V15C24.834 15.7956 24.5179 16.5587 23.9553 17.1213C23.3927 17.6839 22.6296 18 21.834 18H3.83398C3.03833 18 2.27527 17.6839 1.71266 17.1213C1.15005 16.5587 0.833984 15.7956 0.833984 15V3ZM3.83398 1.5C3.43616 1.5 3.05463 1.65804 2.77332 1.93934C2.49202 2.22064 2.33398 2.60218 2.33398 3V3.3255L12.834 9.6255L23.334 3.3255V3C23.334 2.60218 23.1759 2.22064 22.8946 1.93934C22.6133 1.65804 22.2318 1.5 21.834 1.5H3.83398ZM23.334 5.0745L16.197 9.357L23.334 13.671V5.076V5.0745ZM23.283 15.3915L14.7405 10.23L12.834 11.3745L10.926 10.23L2.38498 15.39C2.47078 15.7086 2.65926 15.9901 2.92122 16.1908C3.18317 16.3914 3.504 16.5001 3.83398 16.5H21.834C22.1638 16.5002 22.4844 16.3917 22.7464 16.1914C23.0083 15.991 23.1969 15.7099 23.283 15.3915ZM2.33398 13.671L9.47098 9.357L2.33398 5.0745V13.6695V13.671Z" fill="#F5F5F5"/>
</svg>
