<svg width="19" height="18" viewBox="0 0 19 18" fill="none" xmlns="http://www.w3.org/2000/svg">
<path d="M18.6999 0.559052H0.32486C0.221735 0.559052 0.13736 0.643427 0.13736 0.746552V2.24655C0.13736 2.34968 0.221735 2.43405 0.32486 2.43405H18.6999C18.803 2.43405 18.8874 2.34968 18.8874 2.24655V0.746552C18.8874 0.643427 18.803 0.559052 18.6999 0.559052ZM18.6999 15.1841H0.32486C0.221735 15.1841 0.13736 15.2684 0.13736 15.3716V16.8716C0.13736 16.9747 0.221735 17.0591 0.32486 17.0591H18.6999C18.803 17.0591 18.8874 16.9747 18.8874 16.8716V15.3716C18.8874 15.2684 18.803 15.1841 18.6999 15.1841ZM18.6999 7.87155H0.32486C0.221735 7.87155 0.13736 7.95593 0.13736 8.05905V9.55905C0.13736 9.66218 0.221735 9.74655 0.32486 9.74655H18.6999C18.803 9.74655 18.8874 9.66218 18.8874 9.55905V8.05905C18.8874 7.95593 18.803 7.87155 18.6999 7.87155Z" fill="#F5F5F5"/>
</svg>
