<svg width="19" height="20" viewBox="0 0 19 20" fill="none" xmlns="http://www.w3.org/2000/svg">
<path d="M18.6937 18.0349L12.607 11.9482C13.5516 10.7271 14.0625 9.23413 14.0625 7.66382C14.0625 5.78413 13.3289 4.02163 12.0023 2.69272C10.6758 1.36382 8.90859 0.632568 7.03125 0.632568C5.15391 0.632568 3.38672 1.36616 2.06016 2.69272C0.73125 4.01929 0 5.78413 0 7.66382C0 9.54116 0.733594 11.3083 2.06016 12.6349C3.38672 13.9638 5.15156 14.6951 7.03125 14.6951C8.60156 14.6951 10.0922 14.1841 11.3133 13.2419L17.4 19.3263C17.4178 19.3442 17.439 19.3583 17.4624 19.368C17.4857 19.3777 17.5107 19.3826 17.5359 19.3826C17.5612 19.3826 17.5862 19.3777 17.6095 19.368C17.6328 19.3583 17.654 19.3442 17.6719 19.3263L18.6937 18.3068C18.7116 18.2889 18.7258 18.2677 18.7354 18.2444C18.7451 18.2211 18.7501 18.1961 18.7501 18.1708C18.7501 18.1456 18.7451 18.1206 18.7354 18.0973C18.7258 18.074 18.7116 18.0528 18.6937 18.0349V18.0349ZM10.7438 11.3763C9.75 12.3677 8.43281 12.9138 7.03125 12.9138C5.62969 12.9138 4.3125 12.3677 3.31875 11.3763C2.32734 10.3826 1.78125 9.06538 1.78125 7.66382C1.78125 6.26226 2.32734 4.94272 3.31875 3.95132C4.3125 2.95991 5.62969 2.41382 7.03125 2.41382C8.43281 2.41382 9.75234 2.95757 10.7438 3.95132C11.7352 4.94507 12.2812 6.26226 12.2812 7.66382C12.2812 9.06538 11.7352 10.3849 10.7438 11.3763Z" fill="#BCBCBC"/>
</svg>
